# xmcd
#
# Track frame offsets: 
#        150
#        17575
#        39112
#        62165
#        81480
#        97192
#        119357
#        140012
#        160437
#        176925
#
# Disc length: 2591 seconds
#
# Revision: 3
# Processed by: cddbd v1.5.2PL0 Copyright (c) Steve Scherf et al.
# Submitted via: ExactAudioCopy v0.99pb4
#
DISCID=8c0a1d0a
DTITLE=Simone - Seducao
DYEAR=1988
DGENRE=World
TTITLE0=Separacao
TTITLE1=Codinome Beija-Flor
TTITLE2=Apaixonou
TTITLE3=Olhos Negros
TTITLE4=Kalu
TTITLE5=O Tempo Nao Para
TTITLE6=Amei Demais
TTITLE7=Carta Marcada
TTITLE8=Falou Amizade
TTITLE9=Disputa De Poder
EXTD=ID3G:   0
EXTT0=(Jos  Augusto-Paulo S rgio Valle)
EXTT1=(Reinaldo Arias-Cazuza-Ezequiel Neves)
EXTT2=Pl cido Domingo
EXTT3=(Tunai
EXTT4=(Humberto Teixeira)
EXTT5=(Arnaldo Brand o-Cazuza)
EXTT6=(Michael Sulivan-Paulo Massadas)
EXTT7=(Cesar Camargo Mariano-Ronaldo Bastos)
EXTT8=(Caetano Veloso)
EXTT9=(Almir De Ara jo-Marquinho Lopes Lessa-\nH rcules Corr a-Balinha
PLAYORDER=
